<svg width="262" height="233" viewBox="0 0 262 233" fill="none" xmlns="http://www.w3.org/2000/svg">
<style type="text/css">
		.st0 {
			fill: #ff9000;
		}

		.st1 {
			fill: #5b7388;
		}
		.st2 {
			fill: #888a8c;
		}
		.st3 {
			fill: #00aebd;
		}
	</style>
<path class="st1" d="M131.176 12.105C150.235 12.105 168.435 20.3 181.109 34.589L185.144 39.139L191.199 38.575C192.972 38.41 194.624 38.329 196.248 38.329C225.815 38.329 249.869 62.383 249.869 91.95C249.869 121.516 225.815 145.571 196.248 145.571H45.986C27.394 145.571 12.268 130.445 12.268 111.852C12.268 93.26 27.394 78.133 45.986 78.133C47.785 78.133 49.621 78.283 51.446 78.58L63.385 80.519L65.23 68.564C67.631 52.998 75.556 38.714 87.544 28.343C99.65 17.872 115.145 12.105 131.176 12.105ZM131.176 0.105011C91.809 0.105011 59.193 28.999 53.37 66.736C50.966 66.345 48.502 66.134 45.986 66.134C20.737 66.134 0.268 86.603 0.268 111.853C0.268 137.103 20.737 157.572 45.986 157.572H196.247C232.489 157.572 261.868 128.193 261.868 91.951C261.868 55.709 232.489 26.33 196.247 26.33C194.168 26.33 192.115 26.438 190.086 26.627C175.662 10.365 154.622 0.105011 131.176 0.105011Z" />
<path class="st3" d="M63.1022 175.12C62.5602 174.218 62.2485 173.164 62.2483 172.036C62.2467 168.722 64.9318 166.034 68.2456 166.033L115.131 166.015C118.445 166.012 121.133 168.699 121.133 172.012C121.135 175.326 118.449 178.013 115.136 178.015L68.25 178.033C66.0656 178.035 64.1517 176.866 63.1022 175.12Z" />
<path class="st3"  d="M79.0704 193.316C78.5316 192.413 78.2238 191.358 78.2275 190.229C78.2378 186.916 80.9325 184.238 84.2463 184.248L161.733 184.495C165.046 184.505 167.725 187.201 167.713 190.513C167.703 193.827 165.008 196.505 161.694 196.495L84.2077 196.248C82.0234 196.242 80.1137 195.066 79.0704 193.316Z" />
<path class="st3"  d="M138.072 174.893C137.533 173.989 137.225 172.934 137.228 171.806C137.238 168.492 139.932 165.813 143.246 165.823L190.131 165.961C193.445 165.97 196.124 168.665 196.113 171.978C196.103 175.292 193.409 177.97 190.095 177.961L143.21 177.823C141.025 177.816 139.116 176.642 138.072 174.893Z" />
</svg>
