<svg width="30" height="30" viewBox="0 0 30 30" fill="#ffffff80" xmlns="http://www.w3.org/2000/svg">
	<path d="M19.9932 19.5309H21.0309L28.8016 27.3172L27.3172 28.8016L19.5309 21.0309V19.9932V19.6905L19.3208 19.4726L18.8598 18.9945L18.3682 18.4846L17.831 18.9464C16.0153 20.5073 13.6603 21.4457 11.0978 21.4457C5.38263 21.4457 0.75 16.813 0.75 11.0978C0.75 5.38263 5.38263 0.75 11.0978 0.75C16.813 0.75 21.4457 5.38263 21.4457 11.0978C21.4457 13.6603 20.5073 16.0153 18.9464 17.831L18.4846 18.3682L18.9945 18.8598L19.4726 19.3208L19.6905 19.5309H19.9932ZM2.66472 11.0978C2.66472 15.7634 6.43229 19.5309 11.0978 19.5309C15.7634 19.5309 19.5309 15.7634 19.5309 11.0978C19.5309 6.43229 15.7634 2.66472 11.0978 2.66472C6.43229 2.66472 2.66472 6.43229 2.66472 11.0978Z" stroke="currentColor" fill="currentColor" stroke-opacity="1" stroke-width="1.5"/>
</svg>
