<svg width="49" height="59" viewBox="0 0 49 53" fill="none" xmlns="http://www.w3.org/2000/svg">
<mask id="mask0" mask-type="alpha" maskUnits="userSpaceOnUse" x="0" y="4" width="49" height="44">
<path fill-rule="evenodd" clip-rule="evenodd" d="M18.1249 11.3907L14.6215 4.8517L14.2966 5.02574L14.2941 5L1.90735e-06 5L0 48H14.8236L18 43L15.0766 13.0239L18.1249 11.3907ZM49 47V5H33.9032L31 12L33.2887 39.5913L30.5867 41.039L34.0346 47.4743L34.9198 47H49Z" fill="currentColor"/>
</mask>
<g mask="url(#mask0)">
<path d="M41.5 26.3803C41.5 36.0453 33.665 43.8803 24 43.8803C14.335 43.8803 6.5 36.0453 6.5 26.3803C6.5 16.7153 14.335 8.88028 24 8.88028C33.665 8.88028 41.5 16.7153 41.5 26.3803ZM24 48.8803C36.4264 48.8803 46.5 38.8067 46.5 26.3803C46.5 13.9539 36.4264 3.88028 24 3.88028C11.5736 3.88028 1.5 13.9539 1.5 26.3803C1.5 38.8067 11.5736 48.8803 24 48.8803Z" fill="currentColor" stroke="currentColor"/>
</g>
<path d="M24.4071 49.8886L25.2732 49.8886L24.8402 49.1386L17.6983 36.7685L17.2653 36.0185L16.8322 36.7685L9.69035 49.1386L9.25734 49.8886L10.1234 49.8886L24.4071 49.8886Z" fill="currentColor" stroke="currentColor"/>
<path d="M31.8138 16.7435L32.2468 17.4935L32.6798 16.7435L39.8217 4.37337L40.2547 3.62337L39.3887 3.62337L25.1049 3.62337L24.2389 3.62337L24.6719 4.37337L31.8138 16.7435Z" fill="currentColor" stroke="currentColor"/>
</svg>
