<svg width="38" height="38" viewBox="0 0 38 38" fill="none" xmlns="http://www.w3.org/2000/svg">
<g clip-path="url(#clip0)">
<rect x="10.2891" y="4.6001" width="23" height="33" fill="white"/>
<path d="M32.3036 0.600098H5.27562C2.52208 0.600098 0.289795 2.83229 0.289795 5.58592V32.6141C0.289795 35.3677 2.52199 37.5999 5.27562 37.5999H18.6057L18.6284 24.3782H15.1934C14.747 24.3782 14.3847 24.0172 14.383 23.5708L14.3665 19.3089C14.3648 18.8601 14.7282 18.4953 15.177 18.4953H18.6058V14.3772C18.6058 9.5982 21.5245 6.996 25.7877 6.996H29.286C29.7335 6.996 30.0965 7.35886 30.0965 7.80653V11.4002C30.0965 11.8477 29.7338 12.2105 29.2864 12.2107L27.1396 12.2117C24.8211 12.2117 24.3722 13.3134 24.3722 14.9302V18.4954H29.4666C29.952 18.4954 30.3286 18.9193 30.2714 19.4013L29.7663 23.6632C29.718 24.0711 29.3721 24.3784 28.9615 24.3784H24.3949L24.3722 37.6001H32.3038C35.0573 37.6001 37.2895 35.3679 37.2895 32.6144V5.58592C37.2894 2.83229 35.0572 0.600098 32.3036 0.600098Z" fill="#5881EB"/>
</g>
<defs>
<clipPath id="clip0">
<rect width="37" height="37" fill="white" transform="translate(0.289062 0.600098)"/>
</clipPath>
</defs>
</svg>
