<svg width="38" height="38" viewBox="0 0 38 38" fill="none" xmlns="http://www.w3.org/2000/svg">
<g clip-path="url(#clip0)">
<path d="M18.7899 37.5998C29.0071 37.5998 37.2897 29.3171 37.2897 19.0999C37.2897 8.88276 29.0071 0.600098 18.7899 0.600098C8.57273 0.600098 0.29007 8.88276 0.29007 19.0999C0.29007 29.3171 8.57273 37.5998 18.7899 37.5998Z" fill="#55ACEE"/>
<path d="M30.121 13.8954C29.3282 14.247 28.4754 14.4847 27.5811 14.5909C28.4942 14.0438 29.195 13.1782 29.5258 12.145C28.6713 12.6518 27.7245 13.0195 26.7177 13.2177C25.9111 12.3587 24.7618 11.8218 23.4892 11.8218C21.0475 11.8218 19.0672 13.8021 19.0672 16.2438C19.0672 16.5904 19.1065 16.9277 19.1823 17.2516C15.5073 17.0672 12.2487 15.3069 10.0676 12.6307C9.68704 13.2837 9.46872 14.0438 9.46872 14.8541C9.46872 16.3879 10.25 17.7419 11.4358 18.5347C10.7113 18.512 10.029 18.3131 9.43311 17.981C9.43278 17.9998 9.43278 18.0186 9.43278 18.0371C9.43278 20.1797 10.9577 21.9667 12.9802 22.3727C12.6095 22.4742 12.2181 22.528 11.8154 22.528C11.5298 22.528 11.2531 22.5006 10.9834 22.4492C11.546 24.2056 13.1787 25.4841 15.1142 25.5201C13.6005 26.7063 11.6941 27.413 9.62174 27.413C9.26558 27.413 8.91272 27.3922 8.56744 27.351C10.5234 28.6061 12.8483 29.3379 15.3454 29.3379C23.479 29.3379 27.927 22.5999 27.927 16.7559C27.927 16.5643 27.9227 16.3734 27.9141 16.1841C28.7788 15.5608 29.5284 14.7822 30.121 13.8954Z" fill="#F1F2F2"/>
</g>
<defs>
<clipPath id="clip0">
<rect width="37" height="37" fill="white" transform="translate(0.289062 0.600098)"/>
</clipPath>
</defs>
</svg>
