<svg width="26" height="23" viewBox="0 0 26 23" fill="none" xmlns="http://www.w3.org/2000/svg">
<path d="M12.6553 5.9668L4.33368 13.7635V22.1785C4.33368 22.3964 4.40976 22.6053 4.54519 22.7594C4.68063 22.9134 4.86431 23 5.05584 23L10.1137 22.9851C10.3046 22.984 10.4874 22.897 10.622 22.743C10.7567 22.5891 10.8323 22.3808 10.8323 22.1636V17.2494C10.8323 17.0315 10.9084 16.8225 11.0438 16.6685C11.1792 16.5144 11.3629 16.4278 11.5544 16.4278H14.4431C14.6346 16.4278 14.8183 16.5144 14.9538 16.6685C15.0892 16.8225 15.1653 17.0315 15.1653 17.2494V22.16C15.165 22.2681 15.1834 22.3752 15.2196 22.4752C15.2558 22.5751 15.3089 22.666 15.376 22.7426C15.4431 22.8191 15.5228 22.8799 15.6106 22.9213C15.6983 22.9627 15.7924 22.9841 15.8874 22.9841L20.9435 23C21.135 23 21.3187 22.9134 21.4542 22.7594C21.5896 22.6053 21.6657 22.3964 21.6657 22.1785V13.7579L13.3459 5.9668C13.2481 5.87712 13.1262 5.82821 13.0006 5.82821C12.8749 5.82821 12.7531 5.87712 12.6553 5.9668V5.9668ZM25.8001 11.2661L22.0268 7.72794V0.61614C22.0268 0.45273 21.9697 0.296012 21.8681 0.180463C21.7665 0.0649147 21.6288 0 21.4851 0H18.9575C18.8139 0 18.6761 0.0649147 18.5746 0.180463C18.473 0.296012 18.4159 0.45273 18.4159 0.61614V4.3443L14.375 0.562228C13.9872 0.199208 13.5005 0.000725682 12.9983 0.000725682C12.4961 0.000725682 12.0095 0.199208 11.6217 0.562228L0.196564 11.2661C0.141719 11.3177 0.0963433 11.381 0.0630297 11.4526C0.0297162 11.5241 0.0091177 11.6024 0.0024112 11.683C-0.00429529 11.7636 0.00302166 11.8448 0.023944 11.9222C0.0448663 11.9996 0.0789839 12.0715 0.124347 12.1339L1.2753 13.7255C1.32054 13.7881 1.37619 13.8399 1.43905 13.878C1.50192 13.9161 1.57077 13.9397 1.64166 13.9475C1.71256 13.9553 1.7841 13.947 1.8522 13.9233C1.92031 13.8996 1.98363 13.8608 2.03854 13.8092L12.6553 3.86166C12.7531 3.77197 12.8749 3.72306 13.0006 3.72306C13.1262 3.72306 13.2481 3.77197 13.3459 3.86166L23.9631 13.8092C24.0179 13.8608 24.0811 13.8997 24.1491 13.9235C24.2171 13.9473 24.2886 13.9556 24.3594 13.948C24.4303 13.9403 24.4991 13.9169 24.562 13.879C24.6248 13.8411 24.6805 13.7895 24.7259 13.7271L25.8768 12.1354C25.9221 12.0727 25.9561 12.0004 25.9768 11.9227C25.9975 11.845 26.0044 11.7634 25.9973 11.6826C25.9902 11.6018 25.9691 11.5235 25.9352 11.452C25.9014 11.3805 25.8555 11.3173 25.8001 11.2661V11.2661Z" fill="currentColor" />
</svg>
