<svg width="38" height="38" viewBox="0 0 38 38" fill="none" xmlns="http://www.w3.org/2000/svg">
<g clip-path="url(#clip0)">
<rect x="3.28906" y="4.6001" width="32" height="30" fill="white"/>
<path d="M33.9421 0.600098H3.63601C1.78756 0.600098 0.289062 2.0986 0.289062 3.94705V34.253C0.289062 36.1016 1.78756 37.6001 3.63601 37.6001H33.942C35.7906 37.6001 37.2891 36.1016 37.2891 34.253V3.94705C37.2891 2.0986 35.7906 0.600098 33.9421 0.600098ZM11.7384 32.5483C11.7384 33.0863 11.3024 33.5223 10.7644 33.5223H6.61829C6.08034 33.5223 5.64428 33.0863 5.64428 32.5483V15.1679C5.64428 14.63 6.08034 14.1939 6.61829 14.1939H10.7644C11.3024 14.1939 11.7384 14.63 11.7384 15.1679V32.5483ZM8.69136 12.5556C6.51601 12.5556 4.7525 10.792 4.7525 8.6167C4.7525 6.44135 6.51601 4.67785 8.69136 4.67785C10.8667 4.67785 12.6302 6.44135 12.6302 8.6167C12.6302 10.792 10.8668 12.5556 8.69136 12.5556ZM33.406 32.6268C33.406 33.1214 33.005 33.5223 32.5104 33.5223H28.0613C27.5668 33.5223 27.1658 33.1214 27.1658 32.6268V24.4744C27.1658 23.2582 27.5225 19.1451 23.9876 19.1451C21.2456 19.1451 20.6894 21.9604 20.5777 23.2239V32.6268C20.5777 33.1214 20.1769 33.5223 19.6822 33.5223H15.3792C14.8846 33.5223 14.4836 33.1214 14.4836 32.6268V15.0895C14.4836 14.5949 14.8846 14.1939 15.3792 14.1939H19.6822C20.1768 14.1939 20.5777 14.5949 20.5777 15.0895V16.6058C21.5945 15.08 23.1055 13.9023 26.3226 13.9023C33.4468 13.9023 33.406 20.558 33.406 24.215V32.6268Z" fill="#0077B7"/>
</g>
<defs>
<clipPath id="clip0">
<rect width="37" height="37" fill="white" transform="translate(0.289062 0.600098)"/>
</clipPath>
</defs>
</svg>
