<svg width="55" height="63" viewBox="0 0 55 63" fill="none" xmlns="http://www.w3.org/2000/svg">
<path d="M43.2143 39.375C40.4388 39.375 37.8878 40.3371 35.874 41.9461L23.292 34.0644C23.6646 32.3752 23.6646 30.6247 23.292 28.9355L35.874 21.0538C37.8878 22.6629 40.4388 23.625 43.2143 23.625C49.7233 23.625 55 18.3363 55 11.8125C55 5.28868 49.7233 0 43.2143 0C36.7053 0 31.4286 5.28868 31.4286 11.8125C31.4286 12.6933 31.5256 13.5512 31.708 14.3769L19.126 22.2586C17.1122 20.6496 14.5613 19.6875 11.7857 19.6875C5.27669 19.6875 0 24.9762 0 31.5C0 38.0238 5.27669 43.3125 11.7857 43.3125C14.5613 43.3125 17.1122 42.3504 19.126 40.7414L31.708 48.6231C31.522 49.4651 31.4283 50.325 31.4286 51.1875C31.4286 57.7113 36.7053 63 43.2143 63C49.7233 63 55 57.7113 55 51.1875C55 44.6637 49.7233 39.375 43.2143 39.375Z" fill="currentColor"/>
</svg>
